Coordinates
version=1
nRows=11
nColumns=63
inDegrees=yes

Units are S.I. units (second, meters, Newtons, ...)
If the header above contains a line with 'inDegrees', this indicates whether rotational values are in degrees (yes) or radians (no).

endheader
time	pelvis_tilt	pelvis_list	pelvis_rotation	pelvis_tx	pelvis_ty	pelvis_tz	hip_flexion_r	hip_adduction_r	hip_rotation_r	knee_angle_r	knee_angle_r_beta	ankle_angle_r	subtalar_angle_r	mtp_angle_r	hip_flexion_l	hip_adduction_l	hip_rotation_l	knee_angle_l	knee_angle_l_beta	ankle_angle_l	subtalar_angle_l	mtp_angle_l	L5_S1_Flex_Ext	L5_S1_Lat_Bending	L5_S1_axial_rotation	L4_L5_Flex_Ext	L4_L5_Lat_Bending	L4_L5_axial_rotation	L3_L4_Flex_Ext	L3_L4_Lat_Bending	L3_L4_axial_rotation	L2_L3_Flex_Ext	L2_L3_Lat_Bending	L2_L3_axial_rotation	L1_L2_Flex_Ext	L1_L2_Lat_Bending	L1_L2_axial_rotation	L1_T12_Flex_Ext	L1_T12_Lat_Bending	L1_T12_axial_rotation	Abs_r3	Abs_r2	Abs_r1	Abs_t1	Abs_t2	neck_flexion	neck_bending	neck_rotation	arm_flex_r	arm_add_r	arm_rot_r	elbow_flex_r	pro_sup_r	wrist_flex_r	wrist_dev_r	arm_flex_l	arm_add_l	arm_rot_l	elbow_flex_l	pro_sup_l	wrist_flex_l	wrist_dev_l
      5.55000000	     10.51139371	    -21.51446916	    123.84413807	      0.18745223	      0.43712979	      1.07256926	     50.43735673	     -9.48175665	    -14.18861011	     59.38249931	      1.03642013	     53.76980878	      2.85880220	      0.00000000	     57.49095924	      1.28126180	     -3.51790091	     62.95950036	      1.09885058	     32.93784648	     -7.40663082	      0.00000000	      0.08290883	     -0.60273794	      0.74007874	      0.15396999	     -0.80164146	      0.78633366	      0.13621092	     -1.46549702	      0.78633366	      0.09475651	     -1.46549702	      0.64756890	      0.07698914	     -1.22910320	      0.60131398	      0.04737411	     -0.93364107	      0.55505906	      0.59220951	     -6.81829210	      4.11609594	      0.00000000	      0.00000000	     22.47671170	      8.51722306	    -12.99011194	     62.53234043	    -13.31469868	     79.41643270	     72.84593159	     88.69696283	    -40.05696550	      2.05841020	     12.77194041	    -20.23447529	      7.01605232	     85.04586884	     86.88467073	    -12.45034300	    -15.97100393
      5.56666667	     10.71503615	    -21.24198654	    123.84570028	      0.18742207	      0.43255410	      1.07299222	     50.97328181	     -9.06009699	    -13.66934629	     60.55810516	      1.05693832	     54.15865034	      2.30799898	      0.00000000	     58.26899910	      1.56235183	     -2.19611545	     64.52307764	      1.12614015	     32.91892631	     -8.47301415	      0.00000000	      0.08631535	     -0.60857351	      0.92588990	      0.16029624	     -0.80940277	      0.98375802	      0.14180749	     -1.47968563	      0.98375802	      0.09864982	     -1.47968563	      0.81015366	      0.08015244	     -1.24100310	      0.75228554	      0.04932059	     -0.94268036	      0.69441742	      0.61654194	     -6.88430524	      5.14952184	      0.00000000	      0.00000000	     22.26374437	      7.54096022	    -14.75704493	     64.42434025	    -11.70597131	     83.50182739	     71.23604362	     88.73062407	    -41.94624687	      3.28359369	     13.24820011	    -20.35253998	      7.78371247	     84.33412293	     86.37417481	    -12.70698232	    -17.12594792
      5.58333333	     11.02840330	    -20.84586342	    123.99069557	      0.18718593	      0.42859367	      1.07326404	     51.31938426	     -8.57686647	    -13.38108627	     61.58650789	      1.07488734	     54.13676228	      1.29819627	      0.00000000	     58.89752912	      1.74715064	     -0.89556523	     65.95948653	      1.15121021	     32.64402684	     -9.30866611	      0.00000000	      0.08803290	     -0.58972905	      1.13570203	      0.16348591	     -0.78433964	      1.20668341	      0.14462926	     -1.43386722	      1.20668341	      0.10061281	     -1.43386722	      0.99373928	      0.08174735	     -1.20257548	      0.92275790	      0.05030200	     -0.91349030	      0.85177652	      0.62881023	     -6.67113299	      6.31643400	      0.00000000	      0.00000000	     21.97730225	      6.78622507	    -16.24908850	     65.73467402	    -10.29840456	     86.37212143	     69.79959308	     88.78887098	    -41.18561346	      4.56975828	     14.22870750	    -20.15573265	      8.81845789	     83.33887674	     86.47172746	    -13.94761632	    -17.12417133
      5.60000000	     11.53784382	    -20.28711319	    124.36602742	      0.18662606	      0.42542961	      1.07360954	     51.44630609	     -8.02151891	    -13.41558550	     62.39353348	      1.08897259	     53.76919207	      0.03499920	      0.00000000	     59.37360419	      1.86235025	      0.54078015	     67.20532906	      1.17295427	     32.20785325	     -9.93052259	      0.00000000	      0.08886321	     -0.53240744	      1.34264380	      0.16502786	     -0.70810189	      1.42655903	      0.14599336	     -1.29449545	      1.42655903	      0.10156176	     -1.29449545	      1.17481332	      0.08251837	     -1.08568525	      1.09089808	      0.05077644	     -0.82469912	      1.00698285	      0.63474100	     -6.02269943	      7.46738200	      0.00000000	      0.00000000	     21.55726817	      6.20587748	    -17.42194212	     66.47944709	     -9.41962076	     87.63117629	     68.73223251	     88.83344095	    -37.80109221	      6.14540770	     15.74024241	    -19.62649315	     10.27949834	     82.16290275	     87.29801397	    -17.15460313	    -15.46383565
      5.61666667	     12.04884924	    -19.65928462	    124.85148527	      0.18597653	      0.42318153	      1.07398437	     51.38726547	     -7.52157314	    -13.65096102	     62.99175662	      1.09941355	     53.23665442	     -1.30388862	      0.00000000	     59.62788852	      1.99214726	      1.97377730	     68.18040714	      1.18997259	     31.70582098	    -10.36975768	      0.00000000	      0.08011141	     -0.46389304	      1.50200457	      0.14877491	     -0.61697774	      1.59587986	      0.13161504	     -1.12790954	      1.59587986	      0.09155934	     -1.12790954	      1.31425400	      0.07439146	     -0.94597069	      1.22037871	      0.04577566	     -0.71857032	      1.12650343	      0.57222782	     -5.24765085	      8.35369882	      0.00000000	      0.00000000	     21.08659344	      5.79616931	    -18.34162462	     66.83224154	     -8.91549511	     87.30188552	     67.74330528	     88.77361513	    -32.33470268	      7.10281668	     17.50776680	    -18.86855588	     11.72395559	     81.09932845	     88.00592117	    -21.64809322	    -12.14132336
      5.63333333	     12.46252527	    -19.03341344	    125.38915286	      0.18519977	      0.42182004	      1.07430024	     51.15048664	     -7.13883149	    -13.94605066	     63.36350334	      1.10590176	     52.73253669	     -2.43622961	      0.00000000	     59.66362824	      2.14409172	      3.21444438	     68.87695251	      1.20212960	     31.25285399	    -10.60112048	      0.00000000	      0.06463224	     -0.40218668	      1.58875998	      0.12002853	     -0.53490828	      1.68805748	      0.10618431	     -0.97787668	      1.68805748	      0.07386819	     -0.97787668	      1.39016498	      0.06001750	     -0.82013907	      1.29086748	      0.03693086	     -0.62298716	      1.19156999	      0.46166163	     -4.54961611	      8.83620639	      0.00000000	      0.00000000	     20.60677391	      5.68514548	    -19.00890543	     66.96908233	     -8.65177075	     85.58997278	     66.65138998	     88.54611310	    -25.40079974	      7.23586852	     19.28217535	    -17.98882588	     12.96723112	     80.28044222	     88.42734666	    -27.15774979	     -8.03222202
      5.65000000	     12.68807270	    -18.44051217	    125.80627189	      0.18458520	      0.42149532	      1.07468484	     50.76894085	     -6.82273110	    -14.11920302	     63.50271191	      1.10833141	     52.33119533	     -3.17365354	      0.00000000	     59.43619196	      2.31789579	      4.25585298	     69.22747310	      1.20824734	     31.00967761	    -10.64594081	      0.00000000	      0.03175627	     -0.35753389	      1.59259781	      0.05897457	     -0.47552007	      1.69213517	      0.05217238	     -0.86930789	      1.69213517	      0.03629424	     -0.86930789	      1.39352308	      0.02948887	     -0.72908310	      1.29398572	      0.01814553	     -0.55381999	      1.19444836	      0.22683187	     -4.04449483	      8.85755123	      0.00000000	      0.00000000	     20.21335502	      5.88709298	    -19.23834490	     67.04223328	     -8.27257336	     82.70277737	     65.17500428	     88.12913578	    -17.57412035	      6.24979654	     20.83543171	    -17.15439235	     13.64144122	     79.81210254	     88.65111571	    -33.19901872	     -4.45478973
      5.66666667	     12.91326152	    -17.89539502	    126.09006354	      0.18363482	      0.42187874	      1.07530153	     50.34465022	     -6.51319374	    -14.37455239	     63.40963369	      1.10670689	     52.12295695	     -3.66056008	      0.00000000	     59.15804617	      2.32136934	      4.98592064	     69.40408228	      1.21132975	     30.91768563	    -10.45892908	      0.00000000	      0.01119981	     -0.30186919	      1.53490293	      0.02079917	     -0.40148602	      1.63083436	      0.01840017	     -0.73396475	      1.63083436	      0.01280026	     -0.73396475	      1.34304006	      0.01040014	     -0.61557165	      1.24710863	      0.00639957	     -0.46759537	      1.15117720	      0.07999913	     -3.41480465	      8.53666961	      0.00000000	      0.00000000	     19.76402937	      6.22896141	    -18.72428298	     67.41720762	     -7.57353181	     79.74095358	     63.20497481	     87.55397412	     -9.70321397	      4.01181949	     21.80478338	    -16.08515771	     13.14469902	     79.74133395	     88.74811501	    -38.82722426	     -2.06093409
      5.68333333	     13.11615102	    -17.33914542	    126.00785029	      0.18254776	      0.42310201	      1.07590363	     49.84442429	     -6.01876137	    -14.49444006	     63.08468685	      1.10103549	     51.92401989	     -3.83550516	      0.00000000	     58.69880327	      2.07579956	      5.60064023	     69.34387263	      1.21027889	     31.32755545	     -9.80842002	      0.00000000	     -0.01319764	     -0.23101403	      1.46007277	     -0.02450934	     -0.30724866	      1.55132732	     -0.02168240	     -0.56168751	      1.55132732	     -0.01508358	     -0.56168751	      1.27756368	     -0.01225533	     -0.47108381	      1.18630913	     -0.00754113	     -0.35784073	      1.09505458	     -0.09426943	     -2.61327691	      8.12048674	      0.00000000	      0.00000000	     19.45699505	      6.37717061	    -17.54431478	     68.70005275	     -6.25824080	     78.33747775	     61.02767414	     86.93462060	     -3.79500652	      1.81143581	     22.02237044	    -14.86671265	     11.06587351	     80.41222327	     88.79533960	    -42.52244866	     -0.84634946
      5.70000000	     13.20098247	    -16.96618171	    125.83562238	      0.18111735	      0.42497578	      1.07652968	     49.38134784	     -5.71718210	    -14.52108919	     62.64486683	      1.09335919	     51.72014876	     -3.77014110	      0.00000000	     58.17338406	      1.91307580	      5.98338941	     69.01546676	      1.20454713	     31.97164867	     -9.00108414	      0.00000000	     -0.02332857	     -0.17629039	      1.41278787	     -0.04332349	     -0.23446622	      1.50108711	     -0.03832651	     -0.42863246	      1.50108711	     -0.02666223	     -0.42863246	      1.23618938	     -0.02166291	     -0.35949137	      1.14789014	     -0.01332995	     -0.27307382	      1.05959090	     -0.16663366	     -1.99423218	      7.85750227	      0.00000000	      0.00000000	     19.35141832	      6.37452989	    -16.12376074	     70.82161131	     -4.93137594	     78.35174165	     59.60529604	     86.96696192	      0.73659978	      1.05127923	     22.11995256	    -13.49882446	      8.34717894	     81.18175053	     88.68488285	    -44.20822184	     -1.44645589
      5.71666667	     13.39658594	    -16.61577859	    125.47231138	      0.17957880	      0.42742404	      1.07700448	     48.90226356	     -5.20277776	    -14.47198618	     61.99600619	      1.08203443	     51.43874199	     -3.71549917	      0.00000000	     57.61628575	      1.49158999	      6.26112542	     68.51388400	      1.19579286	     32.80383008	     -7.87789025	      0.00000000	     -0.02550355	     -0.10937749	      1.45229452	     -0.04736264	     -0.14547206	      1.54306293	     -0.04189978	     -0.26594043	      1.54306293	     -0.02914800	     -0.26594043	      1.27075771	     -0.02368259	     -0.22304258	      1.17998930	     -0.01457273	     -0.16942573	      1.08922089	     -0.18216929	     -1.23730004	      8.07722644	      0.00000000	      0.00000000	     19.80651039	      5.52576461	    -15.39830643	     74.05747791	     -3.94774560	     80.45359949	     59.38170573	     86.98060549	      2.81744448	      1.17301588	     22.11182725	    -11.69461722	      4.86506678	     82.34915882	     88.38027822	    -42.67241860	     -3.13690882
